<?xml version="1.0" encoding="utf-8"?>
<!-- Generator: Adobe Illustrator 25.2.0, SVG Export Plug-In . SVG Version: 6.00 Build 0)  -->
<svg version="1.1" id="Layer_1" xmlns="http://www.w3.org/2000/svg" xmlns:xlink="http://www.w3.org/1999/xlink" x="0px" y="0px"
	 viewBox="0 0 1080 1080" style="enable-background:new 0 0 1080 1080;" xml:space="preserve">
<style type="text/css">
	.st0{fill:#435EBE;}
	.st1{fill:#42AEDA;}
	.st2{fill:none;stroke:#FFFFFF;stroke-width:66.5135;stroke-linecap:round;stroke-miterlimit:10;}
</style>
<g>
	<path class="st0" d="M517.3,1025.3c-946.8-625.6-291.5-1114-10.9-855.7c3.7,3.4,7.3,6.9,10.9,10.6c3.5-3.6,7.1-7.1,10.9-10.5
		C808.7-88.8,1464.1,399.6,517.3,1025.3z"/>
	<g>
		<path class="st1" d="M1027.7,237.6H877.8V87.7c0-16.9-13.7-30.5-30.5-30.5h-98.6c-16.9,0-30.5,13.7-30.5,30.5v149.9H568.2
			c-16.9,0-30.5,13.7-30.5,30.5v98.6c0,16.9,13.7,30.5,30.5,30.5h149.9v149.9c0,16.9,13.7,30.5,30.5,30.5h98.6
			c16.9,0,30.5-13.7,30.5-30.5V397.2h149.9c16.9,0,30.5-13.7,30.5-30.5v-98.6C1058.2,251.2,1044.6,237.6,1027.7,237.6z"/>
	</g>
	<path class="st2" d="M144.7,507.5c3,19.6,12.3,36.8,24.6,48.9"/>
	<path class="st2" d="M239.7,210.8C159,256,122.4,322.4,121.2,395.3"/>
</g>
</svg>
