<?xml version="1.0" encoding="utf-8"?>
<!-- Generator: Adobe Illustrator 25.2.0, SVG Export Plug-In . SVG Version: 6.00 Build 0)  -->
<svg version="1.1" id="Layer_1" xmlns="http://www.w3.org/2000/svg" xmlns:xlink="http://www.w3.org/1999/xlink" x="0px" y="0px"
	 viewBox="0 0 250 59.1" style="enable-background:new 0 0 250 59.1;" xml:space="preserve">
<style type="text/css">
	.st0{fill:#435EBE;}
</style>
<g>
	<path class="st0" d="M16,24.5c0,0.8-0.1,2.1-0.2,3.9c-0.2,1.9-0.3,3.2-0.3,3.9c0,4.1,0,6.3,0,6.7c0,1.8,0.6,3.6,1.7,5.2
		c0.5,0.8,1.4,1.4,2.5,2.1c0.9,0.5,1.7,0.5,2.4-0.1c1.2-0.9,2.1-1.6,2.5-2.1c1.2-1.4,1.9-3.2,2.3-5.4c0,0,0-0.1,0-0.2
		c0-0.1,0-0.2,0.1-0.2c0.1-1,0.6-1.8,1.3-2.4c0.7-0.6,1.6-0.9,2.6-0.9c0.7,0,1.4,0.2,1.9,0.5c0.6,0.3,1,0.7,1.3,1.3
		c0.3,0.6,0.4,1.2,0.4,1.8c-0.7,6.5-3.8,11.1-9.2,13.8c-3.1,1.5-6.2,1.4-9.4-0.2c-4.6-2.3-7.2-6-7.8-11c-0.2-1.6-0.2-5.1-0.2-10.5
		c0-2.1,0.3-5,0.7-9c0.4-4,1.7-7.9,3.9-11.7c1-1.8,2.6-3.2,4.7-4.1c2.1-0.9,4.3-1.1,6.6-0.7c3.7,0.6,6.5,2.3,8.5,5.3
		c0.3,0.4,0.4,0.7,0.5,1.1c0.1,0.9,0.5,3.1,1,6.7c0,0.1,0,0.2,0,0.3c0,1-0.2,1.9-0.8,2.5c-0.6,0.6-1.4,1-2.4,1c-1,0-1.9-0.3-2.7-0.9
		c-0.8-0.6-1.3-1.4-1.4-2.3c0-0.4-0.1-0.7-0.1-1.1c0-0.4,0-0.8,0-1.2c0-0.4,0-0.8-0.1-1c0-0.3,0-0.6-0.1-1c-0.1-0.9-0.4-1.5-0.9-2
		c-0.5-0.4-1.2-0.7-2.2-0.8c-1.9-0.2-3.2,0.4-3.9,1.9C17.1,17.6,16.1,21.2,16,24.5z"/>
	<path class="st0" d="M46,23.4c1-0.7,2.3-1.3,3.7-1.7c1.4-0.4,3.1-0.4,4.8-0.1c1.8,0.3,3.2,1.2,4.2,2.6c0.5-1,0.7-1.6,0.7-1.6
		c0.4-0.7,0.9-1.1,1.6-1.4c0.7-0.3,1.3-0.3,2-0.1c0.7,0.2,1.2,0.6,1.6,1.2c0.4,0.6,0.5,1.3,0.4,2.1c0,9.7,0,17.8-0.2,24.2
		c0,0.5,0,1-0.1,1.5c-0.1,0.8-0.4,1.6-1,2.1c-0.6,0.6-1.3,0.9-2.2,0.9c-2,0.1-3.2-0.6-3.5-2.1c-2.2,1-4.9,1.6-8.2,1.7
		c-1,0-2.1,0-3.1-0.2c-1-0.2-2.2-0.7-3.4-1.4c-1.2-0.7-2.2-1.6-3.1-2.8c-0.9-1.2-1.6-2.8-2.1-4.8c-0.5-2.1-0.7-4.5-0.6-7.2
		c0.4-2.9,1.3-5.4,2.5-7.3C41.6,27.1,43.5,25.2,46,23.4z M57.1,43.2c0.1-0.7,0.2-1.9,0.3-3.8c0.1-1.9,0.1-3.8,0.2-5.8
		c0-2,0-3.1,0-3.2c0-1-0.5-1.7-1.4-2.3c-0.9-0.5-1.9-0.8-3-0.7c-1.1,0-2.1,0.3-2.8,0.8c-3.6,2.5-5.3,6.1-5.3,10.9
		c0,4.2,1.9,6.7,5.9,7.4c1.4,0.2,2.7,0,3.7-0.6C55.8,45.2,56.6,44.3,57.1,43.2z"/>
	<path class="st0" d="M86.7,13.5c-0.4,0.4-0.8,0.8-1.1,1.2c-0.2,0.3-0.5,0.6-0.7,1.1c-0.2,0.5-0.5,1-0.7,1.5c-0.2,0.5-0.4,1-0.6,1.6
		c-0.2,0.6-0.3,1.1-0.5,1.6c-0.1,0.5-0.2,1-0.3,1.5c1.1,0,1.6,0,1.7,0c0.9,0,1.9,0,2.9,0c0.7,0,1.5,0.3,2.4,0.7
		c1.2,0.5,1.8,1.5,1.7,2.9c0,1.4-0.7,2.4-2,2.9c-0.6,0.2-1.5,0.3-2.7,0.4c-0.7,0-1.2,0-1.6,0.1c-0.4,0-0.7,0.1-1,0.1
		c-0.3,0-0.8,0-1.6,0.1l-1.1,0.2c-0.5,4.8-0.5,9.1,0,12.8c0.2,1.3,0.4,3.7,0.7,7.2c0,0.6,0,1.1-0.1,1.6c-0.1,0.5-0.4,0.9-0.7,1.3
		c-0.3,0.4-0.7,0.7-1.2,0.9c-0.5,0.2-0.9,0.3-1.4,0.3c-0.8,0-1.5-0.2-2.1-0.7c-0.6-0.4-1-1-1.2-1.8c-0.1-0.4-0.2-1.4-0.4-3
		c-0.5-4.5-0.8-7.1-0.8-7.9c0-0.4,0-2.8-0.1-7.3c0-0.1,0-0.8,0-2.2c-1.6,0.2-2.4,0.3-2.5,0.3c-1.5,0-2.5-0.6-3.1-2
		c-0.5-1.4-0.2-2.6,0.9-3.6c0.6-0.5,1.2-0.9,1.9-1.1c0.2-0.1,1.5-0.5,3.7-1.1c0.4-1.8,0.6-2.8,0.7-2.9c1-3.2,1.7-5.3,2.1-6.2
		c1.4-3.4,3.7-5.7,7-7c2-0.8,3.8-0.8,5.6,0.1c1.1,0.5,1.9,1.3,2.3,2.2c0.8,1.4,0.6,2.7-0.5,3.7c-1.1,1.1-2.4,1.2-3.8,0.3
		c-0.5-0.3-0.9-0.5-1.1-0.4C87.5,13,87.1,13.2,86.7,13.5z"/>
	<path class="st0" d="M106.7,42c-0.4,0.1-1.6,0.2-3.4,0.4c-1.8,0.2-2.8,0.3-2.8,0.3c-0.1,1.1,0.1,2,0.6,2.7c0.5,0.7,1.1,1.3,1.9,1.6
		c0.8,0.3,1.6,0.6,2.5,0.7c0.9,0.1,1.8,0.1,2.6,0.1c0.8-0.1,1.4-0.2,1.9-0.4c2.5-0.8,4.2-1.2,5.1-1.1c1,0.1,1.7,0.6,2.1,1.4
		c0.7,1.3,0.3,2.6-1.2,3.8c-1.9,1.7-5.8,2.6-11.6,2.5c-3-0.1-5.5-1.1-7.3-3c-1.9-1.9-3.1-4.3-3.8-7.1c-1.1-4.2-1.2-8.1-0.4-11.6
		c0.8-3.6,2.7-6.8,5.6-9.7c0.1-0.1,0.5-0.5,1.3-1.1c1-0.8,2.3-1.3,3.8-1.6c1.5-0.3,3-0.4,4.6-0.2c1.6,0.2,3.1,0.6,4.5,1.2
		c1.4,0.6,2.6,1.4,3.5,2.5c0.9,1.1,1.4,2.3,1.5,3.7c0.3,3.5-0.5,6.6-2.2,9.4C113.6,39.4,110.7,41.2,106.7,42z M110.5,27.5
		c-0.4-0.6-1.1-1-2-1.2c-0.9-0.2-1.8-0.1-2.8,0.2c-1,0.3-2,0.9-2.9,1.6c-0.9,0.7-1.6,1.8-2.2,3.2c-0.5,1.4-0.8,3-0.7,4.7
		c0.8,0,1.9-0.1,3.3-0.3s2.5-0.5,3.1-0.7c1.4-0.5,2.5-1.5,3.2-2.8C110.4,30.9,110.7,29.3,110.5,27.5z"/>
	<path class="st0" d="M141,35.9c0-0.6,0-1.4,0-2.4c0-1,0-1.8,0-2.5c0-0.7,0-1.5,0-2.4c0-0.9,0-1.7-0.1-2.4c-0.3-3.7-0.3-8.9,0-15.5
		c0-0.6,0.1-1.1,0.1-1.3c0.3-1.3,1-2.1,2.3-2.1c0.4,0,0.8-0.1,1.3-0.3c3.2-1,6-1.4,8.2-1.1c1.9,0.2,4,1,6.2,2.5
		c4.2,2.8,6.8,7.2,8,13.2c0.8,4.4,0.4,8.8-1.1,13.4c-1.8,5.3-4.6,9.5-8.6,12.8c-1.6,1.3-3.3,2.3-5.1,2.7c-2.7,0.8-4.8,1-6.4,0.9
		c-0.8,0-1.5-0.3-2-0.8c-0.2-0.2-0.5-0.3-0.8-0.5c-1.2-0.5-1.8-1.5-1.9-2.9c-0.1-1.8-0.2-3.5-0.2-5.1C141,42,141,39.8,141,35.9z
		 M147.1,43.5c0,0.1,0,0.9,0,2.5c1.6-0.1,2.9-0.4,3.9-0.9c1-0.4,2.1-1.2,3.3-2.3c2.5-2.3,4.3-5,5.6-8c2.1-5.1,2.4-10.1,0.8-14.9
		c-1.1-3.3-3.3-5.8-6.6-7.4c-1.6-0.8-3.6-1-6.2-0.7c-0.2,0-0.4,0.1-0.6,0.3c-0.2,0.2-0.4,0.3-0.7,0.3
		C147,24.4,147.2,34.7,147.1,43.5z"/>
	<path class="st0" d="M180,12.7c0,4.4-0.2,15.4-0.5,33.1l1.3,0.5c0.7,0.3,1.2,0.8,1.6,1.5c0.4,0.7,0.5,1.4,0.4,2.1
		c-0.2,0.8-0.5,1.4-1.1,1.9c-0.5,0.5-1.2,0.8-1.9,0.8c-0.3,0-1.3,0.1-2.9,0.1c-1.7,0-2.7,0-3.2,0c-1.9,0-3.1-0.4-3.7-1.4
		c-0.4-0.6-0.5-1.3-0.4-2c0.1-0.7,0.4-1.3,1-1.8c0.1-0.1,0.8-0.6,2.1-1.5c0-3.7,0.1-9.3,0.2-16.7c0.1-7.4,0.2-13,0.2-16.8l-1.2-0.7
		c-1.2-0.8-1.6-2-1.1-3.3c0.2-0.6,0.5-1.1,1-1.5c0.5-0.4,1.1-0.6,1.6-0.6c0.5,0,1.1,0,1.7,0c0.6,0,1.3-0.1,2-0.2
		c0.7-0.1,1.3-0.2,1.7-0.2c0.9,0,1.9,0.1,2.8,0.4c0.8,0.2,1.4,0.7,1.8,1.3c0.4,0.6,0.6,1.3,0.5,2.1c0,0.8-0.3,1.5-0.9,2
		c-0.6,0.5-1.3,0.8-2.2,1L180,12.7z"/>
	<path class="st0" d="M205.9,13l-1.2,0.1c-0.1,4-0.2,6-0.2,6.2c-0.1,2.5-0.2,6.5-0.4,12c-0.2,5.5-0.3,9.6-0.4,12.5
		c-0.1,3-0.2,5-0.3,5.8c-0.1,1.1-0.6,1.9-1.4,2.5c-0.8,0.6-1.8,0.7-2.8,0.3c-1.2-0.4-1.9-1.2-2.1-2.5c0-0.4,0-1,0-1.8
		c0.1-4.3,0.3-10.5,0.5-18.7c0.2-8.1,0.4-13,0.4-14.6v-1.3l-1.1-0.1c-0.8,0-1.6,0.1-2.5,0.1c-0.9,0-1.8,0.1-2.7,0.1
		c-0.9,0-1.7,0.1-2.4,0.1c-0.5,0-0.9,0-1.2,0c-0.4,0-0.8-0.2-1.1-0.3c-0.4-0.2-0.7-0.4-0.9-0.7c-0.3-0.3-0.5-0.6-0.6-0.9
		c-0.2-0.4-0.2-0.7-0.2-1.1c0-0.8,0.2-1.5,0.7-2.1c0.5-0.6,1.1-1,1.9-1.2c0.4-0.1,1-0.1,1.7-0.1c2.3-0.1,4.7-0.3,7.3-0.4
		c0.4,0,1.8-0.1,4.2-0.2c2.4-0.1,3.7-0.2,4-0.2c1.4-0.1,2.9-0.2,4.7-0.3c1.7-0.1,3.3-0.2,4.6-0.3c0.7,0,1.3,0,1.9,0.2
		c0.7,0.2,1.2,0.6,1.6,1.2c0.4,0.6,0.6,1.2,0.6,1.9c0,0.7-0.2,1.3-0.6,1.9c-0.4,0.6-0.9,0.9-1.6,1.2c-0.4,0.1-1,0.2-1.6,0.3
		c-1.2,0-2.7,0.1-4.2,0.3C208.6,12.8,207.2,12.9,205.9,13z"/>
	<path class="st0" d="M235.4,48.2c-0.1-0.3-0.5-2-1.2-4.9c-4.1,0.1-6.3,0.2-6.7,0.2c-0.3,0-2.5,0-6.6,0c-1.2,2.7-2.1,4.7-2.6,6.2
		c-0.3,0.8-0.4,1.2-0.4,1.3c-0.4,0.7-0.8,1.2-1.4,1.5c-0.6,0.3-1.2,0.4-1.9,0.1c-0.7-0.2-1.2-0.6-1.6-1.2c-0.4-0.6-0.6-1.3-0.5-2.1
		c0.1-0.8,0.3-1.6,0.6-2.4c1.9-5.2,3.1-8.5,3.7-10c3.2-7.8,5.9-15.4,8.1-22.6c0.5-1.7,1.1-3.2,1.7-4.4c0.4-0.9,1.1-1.9,2.1-2.9
		c0.6-0.7,1.4-0.9,2.2-0.8c0.8,0.1,1.5,0.6,2.1,1.4c0.2,0.4,0.4,0.8,0.5,1.2c0.2,0.7,0.5,1.9,0.9,3.6c0.4,1.7,0.8,3.2,1.1,4.4
		c0.3,1.2,0.5,2.5,0.7,3.6c1.8,10.7,3.7,19.7,5.6,27.1c0.1,0.5,0.2,0.9,0.3,1.1c0.1,0.8,0,1.6-0.4,2.3c-0.4,0.7-1,1.2-1.7,1.5
		c-0.8,0.3-1.5,0.2-2.2-0.1c-0.7-0.3-1.2-0.8-1.6-1.6C236,50.1,235.7,49.3,235.4,48.2z M232.5,36.3c-0.7-4.1-1.6-9.3-2.7-15.4
		c-0.6,1.7-1.3,3.4-1.9,5.2c-0.7,1.8-1.4,3.8-2.2,6c-0.8,2.2-1.4,3.9-1.8,5.1C226,37,228.9,36.7,232.5,36.3z"/>
</g>
</svg>
